 <svg  version="1.0" xmlns="http://www.w3.org/2000/svg"  width="281.000000pt" height="250.000000pt" viewBox="0 0 281.000000 250.000000"  preserveAspectRatio="xMidYMid meet">  <g transform="translate(0.000000,250.000000) scale(0.100000,-0.100000)" fill="#2205ff" stroke="none"> <path d="M760 1916 c-6 -8 -10 -25 -8 -38 7 -48 122 -51 134 -2 4 14 1 31 -6 39 -17 20 -103 20 -120 1z m110 -20 c0 -19 -22 -36 -46 -36 -35 0 -54 11 -54 29 0 13 10 17 50 18 32 0 50 -4 50 -11z"/> <path d="M946 1911 c-19 -21 -13 -47 15 -61 10 -6 49 -10 88 -10 60 0 72 -3 81 -20 12 -23 -2 -60 -23 -60 -7 -1 -103 0 -214 0 -193 1 -203 0 -223 -20 -19 -19 -20 -24 -7 -43 14 -21 22 -22 202 -25 191 -2 215 -7 215 -42 0 -28 -32 -49 -84 -52 -60 -4 -80 -26 -52 -57 16 -18 31 -21 97 -21 69 0 80 -3 93 -22 13 -19 14 -25 2 -43 -11 -17 -26 -20 -90 -23 -63 -2 -77 -6 -86 -22 -8 -14 -7 -26 0 -40 9 -16 21 -20 68 -20 57 0 57 0 85 -44 100 -158 327 -230 493 -157 26 12 48 21 50 21 2 0 15 -18 29 -40 l25 -40 95 0 95 0 0 98 -1 97 -168 103 c-166 100 -169 103 -176 142 -12 70 -28 71 -95 5 -33 -32 -56 -64 -53 -71 3 -7 26 -19 51 -26 40 -12 50 -20 84 -76 21 -35 36 -67 33 -72 -9 -15 -107 -32 -151 -26 -221 30 -314 289 -165 458 93 106 265 114 375 17 70 -61 90 -107 91 -208 l2 -85 52 -33 c28 -18 55 -33 59 -33 13 0 32 96 32 161 0 66 -28 160 -64 217 -32 51 -105 116 -163 145 -76 39 -147 47 -423 47 -238 0 -258 -1 -274 -19z m614 -17 c75 -22 178 -83 164 -97 -3 -3 3 -12 15 -19 12 -7 21 -20 21 -28 0 -13 1 -13 10 0 7 11 10 12 10 2 0 -8 9 -27 21 -43 11 -16 18 -29 15 -29 -3 0 2 -17 11 -37 18 -44 27 -174 15 -218 -10 -35 -33 -36 -71 -2 -13 12 -21 16 -16 8 5 -9 4 -12 -2 -8 -12 8 -14 55 -3 62 21 13 -30 181 -60 200 -6 4 -8 11 -5 16 4 5 0 9 -7 9 -9 0 -9 3 2 10 13 8 13 10 -2 10 -21 0 -50 29 -42 42 4 5 -4 5 -16 -2 -12 -7 -20 -8 -16 -2 17 28 -221 49 -248 22 -5 -5 -18 -10 -27 -10 -9 0 -37 -21 -62 -46 -30 -30 -51 -43 -59 -38 -11 6 -11 5 0 -8 10 -12 9 -18 -3 -28 -8 -7 -15 -21 -15 -32 0 -11 -4 -16 -11 -12 -8 4 -9 -1 -4 -16 4 -13 3 -20 -2 -17 -5 3 -7 -10 -5 -29 2 -19 -1 -41 -8 -49 -10 -13 -14 -13 -27 0 -10 10 -37 15 -86 15 -82 0 -108 10 -88 34 8 9 27 14 50 13 45 -1 91 25 91 53 0 10 -5 31 -12 45 l-11 25 -161 1 c-89 1 -178 0 -198 -1 -32 -1 -37 1 -31 16 5 13 3 15 -8 9 -12 -7 -12 -6 -1 6 10 11 59 15 228 17 220 2 234 5 242 42 9 37 9 79 1 74 -5 -3 -7 -11 -3 -17 3 -7 -1 -4 -10 7 -12 14 -30 18 -88 19 -52 1 -76 6 -85 17 -6 8 -9 18 -6 23 2 4 128 7 280 7 206 -1 287 -5 323 -16z m-37 -369 c-3 -8 0 -15 6 -15 6 0 8 -6 5 -13 -2 -7 4 -21 15 -31 11 -10 18 -23 15 -27 -3 -5 2 -9 11 -9 18 0 58 -23 94 -54 13 -12 21 -15 16 -7 -5 9 2 8 24 -5 17 -10 31 -22 31 -26 0 -4 7 -8 15 -8 8 0 15 -4 15 -8 0 -5 17 -17 38 -28 64 -33 73 -49 70 -128 l-3 -71 -82 -1 c-82 -2 -82 -2 -95 27 -7 16 -16 29 -20 29 -4 0 -5 7 -2 15 7 17 1 19 -24 5 -47 -25 -92 -41 -102 -35 -6 4 -16 2 -23 -4 -13 -10 -122 -9 -172 3 -16 4 -45 16 -63 27 -18 10 -30 14 -26 7 4 -7 3 -8 -4 -4 -7 4 -12 14 -12 21 0 8 -10 20 -22 26 l-23 12 20 -24 c18 -22 18 -22 1 -9 -41 32 -72 68 -68 80 3 8 0 10 -7 6 -6 -4 -15 3 -20 17 -13 34 -51 55 -107 59 -35 2 -50 7 -52 19 -3 19 34 33 43 15 3 -8 7 -8 11 2 3 6 18 12 34 12 16 0 31 -6 33 -12 4 -9 8 -9 14 -3 4 6 17 15 28 21 11 6 23 26 26 45 4 23 7 27 8 11 1 -26 25 -77 50 -107 15 -19 15 -19 -4 -6 -11 7 -7 2 8 -13 15 -14 24 -26 20 -26 -4 0 4 -8 20 -18 15 -10 24 -22 20 -27 -5 -4 -3 -5 4 -1 11 6 56 -16 73 -34 3 -3 47 -6 98 -6 51 0 87 3 80 8 -9 5 -4 8 13 8 33 0 45 16 45 57 -1 22 -9 38 -28 53 -16 12 -28 27 -28 35 0 15 -38 42 -74 51 -34 8 -31 23 14 72 34 38 55 46 43 17z m67 -205 c0 -5 -2 -10 -4 -10 -3 0 -8 5 -11 10 -3 6 -1 10 4 10 6 0 11 -4 11 -10z"/> <path d="M825 1576 c-21 -15 -17 -55 8 -70 25 -16 52 4 52 39 0 33 -33 51 -60 31z m43 -33 c-4 -21 -35 -25 -42 -6 -3 8 -1 11 4 8 6 -3 13 1 16 9 8 20 26 10 22 -11z"/> <path d="M731 903 c-34 -17 -61 -63 -61 -103 0 -31 44 -70 80 -70 20 0 30 -5 30 -15 0 -10 11 -15 35 -15 35 0 35 0 20 24 -14 20 -14 25 -1 35 46 38 40 127 -10 150 -33 15 -53 14 -93 -6z m79 -54 c17 -31 -11 -69 -50 -69 -30 0 -36 10 -30 50 6 42 61 55 80 19z m36 -9 c0 -12 -4 -16 -9 -11 -5 5 -6 14 -3 20 10 15 12 14 12 -9z m-59 -86 c-3 -3 -12 -4 -19 -1 -8 3 -5 6 6 6 11 1 17 -2 13 -5z"/> <path d="M930 910 c-27 -6 -37 -33 -39 -107 -1 -51 18 -73 64 -73 56 0 91 38 104 113 6 35 11 66 11 69 0 7 -39 3 -47 -6 -5 -4 -12 -33 -18 -64 -9 -52 -13 -57 -37 -60 -24 -3 -28 0 -28 20 0 13 5 40 11 61 13 48 10 55 -21 47z m107 -82 c-3 -7 -5 -2 -5 12 0 14 2 19 5 13 2 -7 2 -19 0 -25z m-102 -58 c3 -5 1 -10 -4 -10 -6 0 -11 5 -11 10 0 6 2 10 4 10 3 0 8 -4 11 -10z"/> <path d="M1086 829 c-9 -48 -16 -90 -16 -93 0 -3 11 -6 25 -6 14 0 25 2 25 4 0 2 7 40 15 83 19 100 19 98 -9 98 -23 0 -25 -6 -40 -86z"/> <path d="M1255 913 c-58 -11 -95 -54 -95 -113 0 -69 88 -95 149 -44 17 14 31 30 31 35 0 12 -57 12 -65 -1 -11 -18 -53 -11 -60 10 -13 41 49 94 70 60 9 -15 65 -12 65 3 0 30 -53 57 -95 50z m-63 -100 c-3 -16 -7 -22 -10 -15 -4 13 4 42 11 42 2 0 2 -12 -1 -27z"/> <path d="M1413 912 c-24 -4 -24 -4 -46 -114 l-14 -68 29 0 c29 0 29 1 32 68 1 9 -5 16 -12 14 -8 -1 -12 3 -10 10 3 7 11 13 18 13 13 0 35 59 28 73 -2 4 -13 6 -25 4z"/> <path d="M1515 911 c-20 -4 -30 -12 -29 -24 1 -9 -2 -15 -6 -12 -4 2 -19 -8 -34 -24 l-27 -28 22 -47 c21 -41 27 -46 56 -46 32 0 33 1 22 23 -29 55 -49 75 -72 71 -20 -4 -20 -4 -2 5 11 4 23 7 27 4 8 -4 88 70 88 81 0 7 -2 6 -45 -3z"/> <path d="M1734 913 c-17 -3 -24 -16 -35 -70 -8 -37 -20 -68 -26 -71 -7 -2 -13 4 -13 13 0 12 -7 15 -27 13 -22 -2 -27 -8 -25 -23 6 -32 22 -45 58 -45 43 0 71 27 79 77 4 21 11 53 15 70 9 36 5 41 -26 36z"/> <path d="M1845 910 c-54 -22 -84 -93 -59 -141 37 -72 164 -40 180 46 8 46 -2 73 -36 90 -32 17 -55 18 -85 5z m75 -30 c0 -5 -2 -10 -4 -10 -3 0 -8 5 -11 10 -3 6 -1 10 4 10 6 0 11 -4 11 -10z m-7 -31 c17 -27 -17 -71 -51 -67 -21 2 -28 9 -30 29 -6 50 56 78 81 38z m37 -14 c0 -14 -2 -25 -4 -25 -2 0 -6 11 -8 25 -3 14 -1 25 3 25 5 0 9 -11 9 -25z m-115 -83 c-3 -3 -11 0 -18 7 -9 10 -8 11 6 5 10 -3 15 -9 12 -12z"/> <path d="M2006 888 c-16 -74 -26 -131 -26 -143 0 -21 108 -20 138 1 23 16 30 58 10 70 -8 5 -7 10 4 18 21 15 27 38 16 59 -7 13 -22 17 -73 17 -59 0 -65 -2 -69 -22z m92 -30 c-7 -20 -48 -23 -48 -4 0 11 9 16 26 16 16 0 24 -5 22 -12z m-78 -55 c-11 -17 -11 -17 -6 0 3 10 7 28 7 40 2 22 2 22 6 0 2 -12 -1 -30 -7 -40z m65 -13 c0 -9 -11 -16 -27 -18 -23 -3 -26 0 -21 18 7 24 48 25 48 0z m-58 -36 c-3 -3 -12 -4 -19 -1 -8 3 -5 6 6 6 11 1 17 -2 13 -5z"/> <path d="M963 644 c-4 -11 3 -24 18 -36 l24 -20 -29 7 c-26 6 -28 5 -16 -10 17 -21 54 -15 58 8 3 12 -4 20 -17 24 -12 3 -21 10 -21 15 0 5 9 6 20 3 24 -7 27 10 4 19 -25 10 -34 7 -41 -10z"/> <path d="M1060 615 c0 -41 2 -45 25 -45 14 0 25 5 25 10 0 6 -7 10 -15 10 -21 0 -19 18 3 23 16 4 16 5 0 6 -22 1 -24 21 -3 21 8 0 15 5 15 10 0 6 -11 10 -25 10 -23 0 -25 -4 -25 -45z"/> <path d="M1171 638 c-19 -51 -22 -68 -13 -68 6 0 12 6 15 13 3 9 9 9 27 -1 30 -18 32 -12 17 33 -16 46 -34 55 -46 23z m29 -23 c0 -8 -4 -15 -10 -15 -5 0 -10 7 -10 15 0 8 5 15 10 15 6 0 10 -7 10 -15z"/> <path d="M1270 615 c0 -25 5 -45 10 -45 6 0 10 8 10 18 1 16 1 16 14 0 17 -23 30 -23 22 -2 -4 9 -1 23 5 30 16 19 -6 44 -37 44 -22 0 -24 -4 -24 -45z m45 15 c3 -5 -1 -10 -9 -10 -9 0 -16 5 -16 10 0 6 4 10 9 10 6 0 13 -4 16 -10z"/> <path d="M1386 644 c-22 -21 -20 -51 3 -64 26 -13 34 -13 57 5 18 14 17 15 -16 12 -29 -2 -35 1 -35 18 0 17 6 20 35 18 33 -3 34 -2 16 12 -25 19 -41 19 -60 -1z"/> <path d="M1494 615 c1 -29 5 -45 14 -45 6 0 12 9 12 20 0 11 7 20 15 20 8 0 15 -9 15 -20 0 -11 5 -20 10 -20 6 0 10 20 10 45 0 25 -4 45 -10 45 -5 0 -10 -9 -10 -20 0 -11 -7 -20 -15 -20 -8 0 -15 9 -15 20 0 11 -6 20 -13 20 -10 0 -14 -13 -13 -45z"/> <path d="M1610 615 c0 -25 5 -45 10 -45 6 0 10 20 10 45 0 25 -4 45 -10 45 -5 0 -10 -20 -10 -45z"/> <path d="M1670 615 c0 -31 4 -45 14 -45 9 0 12 9 9 28 l-4 27 21 -27 c30 -39 40 -35 40 17 0 49 -16 62 -22 18 l-4 -28 -14 28 c-21 43 -40 34 -40 -18z"/> <path d="M1800 646 c-28 -35 11 -93 48 -70 26 17 28 44 3 44 -12 0 -21 -5 -21 -11 0 -5 5 -7 10 -4 6 3 10 1 10 -5 0 -6 -8 -10 -17 -8 -10 2 -18 12 -18 23 0 16 6 19 28 17 29 -3 37 12 11 22 -25 10 -41 7 -54 -8z"/> </g> </svg> 